<svg width="22" height="22" viewBox="0 0 22 22" fill="none" xmlns="http://www.w3.org/2000/svg">
<g id="color-picker-dropper-colour 1">
<path id="Vector" d="M19.0437 2.2688C18.0125 1.23755 16.3625 1.23755 15.3312 2.2688L11.6875 5.91255L10.7937 5.0188C10.5187 4.7438 10.1062 4.7438 9.83125 5.0188C9.55625 5.2938 9.55625 5.7063 9.83125 5.9813L10.725 6.87505L3.4375 14.1625C3.025 14.575 2.75 15.125 2.68125 15.7438C2.26875 16.0875 2.0625 16.6375 2.0625 17.1875C2.0625 18.3563 2.95625 19.25 4.125 19.25C4.675 19.25 5.225 19.0438 5.6375 18.6313C6.1875 18.5625 6.7375 18.2875 7.15 17.875L14.4375 10.5875L15.3312 11.4813C15.4687 11.6188 15.675 11.6875 15.8125 11.6875C15.95 11.6875 16.1562 11.6188 16.2937 11.4813C16.5687 11.2063 16.5687 10.7938 16.2937 10.5188L15.4 9.62505L19.0437 5.9813C20.075 4.95005 20.075 3.30005 19.0437 2.2688ZM6.1875 16.9125C5.9125 17.1875 5.6375 17.325 5.29375 17.2563C5.01875 17.2563 4.8125 17.3938 4.675 17.6C4.60625 17.7375 4.33125 17.875 4.125 17.875C3.7125 17.875 3.4375 17.6 3.4375 17.1875C3.4375 16.9813 3.575 16.7063 3.78125 16.6375C3.9875 16.5 4.125 16.2938 4.125 16.0188C4.125 15.675 4.2625 15.3313 4.46875 15.125L11.6875 7.83755L13.475 9.62505L6.1875 16.9125Z" fill="black" fill-opacity="0.7"/>
</g>
</svg>
