<svg width="131" height="89" viewBox="0 0 131 89" fill="none" xmlns="http://www.w3.org/2000/svg">
<g id="Frame" clip-path="url(#clip0_923_5714)">
<path id="Vector" d="M27.5166 53.707V44.3999H1.0905V35.0929C5.72797 26.4014 11.5064 17.2393 22.4007 1.44987H38.0797V35.6361H44.9991V44.3999H38.0797V53.707H27.5166ZM10.8439 35.6723V35.962H27.7374V9.19969H27.5166C19.7875 20.3537 15.1501 27.4879 10.8439 35.6723ZM50.1863 17.1668C50.1863 7.28036 58.2098 0.291016 69.8033 0.291016C80.9924 0.291016 88.6844 6.66472 88.6844 15.3923C88.6844 21.9109 84.2679 26.7998 78.416 32.5216L65.4605 44.7983V45.0155H89.4205V53.707H50.812V46.3554L70.8341 27.3792C76.2077 22.092 77.8639 19.4483 77.8639 15.8269C77.8639 11.9158 74.3675 8.80134 69.4352 8.80134C64.2826 8.80134 60.4919 12.3503 60.4919 17.1668V17.3479H50.1863V17.1668ZM10.0151 76.6362C13.6946 76.6362 16.57 74.1427 16.57 70.8579V68.8682L10.2588 69.2518C7.11537 69.4671 5.33653 70.8338 5.33653 72.9918C5.33653 75.1979 7.18846 76.6362 10.0151 76.6362ZM8.55305 80.7364C3.53334 80.7364 0.0244141 77.6674 0.0244141 73.1356C0.0244141 68.7239 3.46024 66.0145 9.55213 65.679L16.57 65.2713V63.3292C16.57 60.5241 14.645 58.8459 11.4284 58.8459C8.38249 58.8459 6.48184 60.2843 6.01882 62.5384H1.04785C1.34026 57.9825 5.28782 54.6261 11.6234 54.6261C17.8371 54.6261 21.809 57.8628 21.809 62.922V80.3047H16.7649V76.157H16.6431C15.1566 78.962 11.9158 80.7364 8.55305 80.7364ZM40.0197 54.6742C46.5258 54.6742 50.8145 59.7088 50.8145 67.6933C50.8145 75.6772 46.5502 80.7364 40.1172 80.7364C36.4377 80.7364 33.5136 78.962 32.0515 76.157H31.9297V88.6481H26.6663V55.0819H31.7591V59.4214H31.8565C33.3674 56.5202 36.3158 54.6742 40.0197 54.6742ZM38.6307 76.3488C42.7976 76.3488 45.405 72.9918 45.405 67.6933C45.405 62.4182 42.7976 59.0377 38.6307 59.0377C34.6101 59.0377 31.9053 62.4903 31.9053 67.6933C31.9053 72.9437 34.5857 76.3488 38.6307 76.3488ZM67.9776 54.6742C74.4834 54.6742 78.7721 59.7088 78.7721 67.6933C78.7721 75.6772 74.5079 80.7364 68.0748 80.7364C64.3954 80.7364 61.4713 78.962 60.0095 76.157H59.8873V88.6481H54.6239V55.0819H59.7168V59.4214H59.814C61.3252 56.5202 64.2737 54.6742 67.9776 54.6742ZM66.5886 76.3488C70.7551 76.3488 73.3626 72.9918 73.3626 67.6933C73.3626 62.4182 70.7551 59.0377 66.5886 59.0377C62.5676 59.0377 59.8629 62.4903 59.8629 67.6933C59.8629 72.9437 62.5432 76.3488 66.5886 76.3488ZM93.3032 58.7979C89.6238 58.7979 87.0412 61.5553 86.773 65.3675H99.5902C99.4686 61.5072 96.9827 58.7979 93.3032 58.7979ZM99.5658 72.8962H104.561C103.83 77.4996 99.3953 80.7844 93.5226 80.7844C85.9932 80.7844 81.4363 75.7733 81.4363 67.8129C81.4363 59.9006 86.066 54.6261 93.3032 54.6261C100.419 54.6261 104.854 59.5651 104.854 67.2135V68.9878H86.7486V69.2993C86.7486 73.6869 89.4289 76.5881 93.6448 76.5881C96.6417 76.5881 98.8593 75.1017 99.5658 72.8962ZM108.687 80.3047V55.0819H113.707V59.3017H113.829C115.218 56.424 117.947 54.6502 121.895 54.6502C127.548 54.6502 130.789 58.1984 130.789 63.9767V80.3047H125.501V64.9839C125.501 61.1957 123.698 59.1094 120.043 59.1094C116.339 59.1094 113.951 61.6991 113.951 65.6074V80.3047H108.687Z" fill="#0369D8"/>
</g>
<defs>
<clipPath id="clip0_923_5714">
<rect width="131" height="89" fill="white"/>
</clipPath>
</defs>
</svg>
