<svg width="57" height="39" viewBox="0 0 57 39" fill="none" xmlns="http://www.w3.org/2000/svg">
<g id="Frame" clip-path="url(#clip0_849_14902)">
<path id="Vector" d="M11.973 23.5344V19.4561H0.47461V15.3777C2.49244 11.5691 5.00671 7.5542 9.74698 0.635253H16.5691V15.6157H19.5799V19.4561H16.5691V23.5344H11.973ZM4.71845 15.6316V15.7585H12.0691V4.03124H11.973C8.60997 8.91895 6.59214 12.0452 4.71845 15.6316ZM21.8369 7.52246C21.8369 3.19019 25.328 0.127441 30.3725 0.127441C35.2411 0.127441 38.588 2.92041 38.588 6.74488C38.588 9.60132 36.6663 11.7436 34.1201 14.251L28.483 19.6306V19.7258H38.9083V23.5344H22.1091V20.313L30.8211 11.9976C33.1592 9.68066 33.8799 8.52223 33.8799 6.93531C33.8799 5.22144 32.3585 3.85668 30.2124 3.85668C27.9704 3.85668 26.321 5.41186 26.321 7.52246V7.6018H21.8369V7.52246ZM4.35783 33.5821C5.95886 33.5821 7.20996 32.4894 7.20996 31.05V30.1781L4.46387 30.3462C3.09612 30.4406 2.32212 31.0395 2.32212 31.9851C2.32212 32.9518 3.12792 33.5821 4.35783 33.5821ZM3.72167 35.3788C1.53753 35.3788 0.0107422 34.0339 0.0107422 32.0481C0.0107422 30.1149 1.50572 28.9276 4.15639 28.7806L7.20996 28.602V27.7509C7.20996 26.5217 6.37235 25.7863 4.9728 25.7863C3.64746 25.7863 2.82046 26.4166 2.619 27.4044H0.456054C0.583286 25.408 2.30093 23.9372 5.05762 23.9372C7.7613 23.9372 9.48953 25.3555 9.48953 27.5725V35.1896H7.29478V33.3721H7.24176C6.59499 34.6012 5.18485 35.3788 3.72167 35.3788ZM17.4133 23.9583C20.2442 23.9583 22.1103 26.1645 22.1103 29.6632C22.1103 33.1618 20.2548 35.3788 17.4557 35.3788C15.8547 35.3788 14.5824 34.6012 13.9462 33.3721H13.8932V38.8457H11.603V24.1369H13.819V26.0385H13.8614C14.5187 24.7672 15.8017 23.9583 17.4133 23.9583ZM16.8089 33.4561C18.622 33.4561 19.7565 31.9851 19.7565 29.6632C19.7565 27.3517 18.622 25.8704 16.8089 25.8704C15.0595 25.8704 13.8826 27.3833 13.8826 29.6632C13.8826 31.964 15.0489 33.4561 16.8089 33.4561ZM29.5782 23.9583C32.4089 23.9583 34.275 26.1645 34.275 29.6632C34.275 33.1618 32.4196 35.3788 29.6205 35.3788C28.0195 35.3788 26.7472 34.6012 26.1111 33.3721H26.058V38.8457H23.7678V24.1369H25.9838V26.0385H26.0261C26.6836 24.7672 27.9666 23.9583 29.5782 23.9583ZM28.9738 33.4561C30.7867 33.4561 31.9213 31.9851 31.9213 29.6632C31.9213 27.3517 30.7867 25.8704 28.9738 25.8704C27.2242 25.8704 26.0473 27.3833 26.0473 29.6632C26.0473 31.964 27.2136 33.4561 28.9738 33.4561ZM40.5977 25.7653C38.9967 25.7653 37.873 26.9736 37.7563 28.6441H43.3333C43.2803 26.9525 42.1987 25.7653 40.5977 25.7653ZM43.3226 31.9432H45.4963C45.1781 33.9604 43.2484 35.3998 40.6932 35.3998C37.417 35.3998 35.4342 33.204 35.4342 29.7157C35.4342 26.2485 37.4487 23.9372 40.5977 23.9372C43.6938 23.9372 45.6234 26.1015 45.6234 29.453V30.2305H37.7457V30.367C37.7457 32.2897 38.9119 33.561 40.7463 33.561C42.0503 33.561 43.0152 32.9097 43.3226 31.9432ZM47.2916 35.1896V24.1369H49.4757V25.986H49.5288C50.1332 24.725 51.3207 23.9477 53.0382 23.9477C55.498 23.9477 56.9083 25.5026 56.9083 28.0347V35.1896H54.6075V28.476C54.6075 26.816 53.8228 25.9018 52.2325 25.9018C50.6209 25.9018 49.5818 27.0366 49.5818 28.7492V35.1896H47.2916Z" fill="white"/>
</g>
<defs>
<clipPath id="clip0_849_14902">
<rect width="57" height="39" fill="white"/>
</clipPath>
</defs>
</svg>
