<svg width="89" height="88" viewBox="0 0 89 88" fill="none" xmlns="http://www.w3.org/2000/svg">
<g id="23 No Content">
<path id="Vector" d="M47.25 8.25V12.375H6V8.25C6 6.7375 7.2375 5.5 8.75 5.5H44.5C46.0125 5.5 47.25 6.7375 47.25 8.25Z" fill="#0369D8"/>
<path id="Vector_2" d="M47.25 12.375V57.75C47.25 59.2625 46.0125 60.5 44.5 60.5H8.75C7.2375 60.5 6 59.2625 6 57.75V12.375H47.25Z" fill="#F5F5F5"/>
<path id="Vector_3" d="M83 30.25V34.375H41.75V30.25C41.75 28.7375 42.9875 27.5 44.5 27.5H80.25C81.7625 27.5 83 28.7375 83 30.25Z" fill="#0369D8"/>
<path id="Vector_4" d="M83 34.375V79.75C83 81.2625 81.7625 82.5 80.25 82.5H44.5C42.9875 82.5 41.75 81.2625 41.75 79.75V34.375H83Z" fill="#F5F5F5"/>
<path id="Vector_5" d="M65.125 20.625V24.75H23.875V20.625C23.875 19.1125 25.1125 17.875 26.625 17.875H62.375C63.8875 17.875 65.125 19.1125 65.125 20.625Z" fill="#0369D8"/>
<path id="Vector_6" d="M65.125 24.75V70.125C65.125 71.6375 63.8875 72.875 62.375 72.875H26.625C25.1125 72.875 23.875 71.6375 23.875 70.125V24.75H65.125Z" fill="#80B3EB"/>
<path id="Vector_7" d="M80.25 26.125H66.5V20.625C66.5 18.3562 64.6437 16.5 62.375 16.5H48.625V8.25C48.625 5.98125 46.7687 4.125 44.5 4.125H8.75C6.48125 4.125 4.625 5.98125 4.625 8.25V57.75C4.625 60.0187 6.48125 61.875 8.75 61.875H22.5V70.125C22.5 72.3938 24.3563 74.25 26.625 74.25H40.375V79.75C40.375 82.0188 42.2313 83.875 44.5 83.875H80.25C82.5188 83.875 84.375 82.0188 84.375 79.75V30.25C84.375 27.9813 82.5188 26.125 80.25 26.125ZM80.25 28.875C81.0062 28.875 81.625 29.4937 81.625 30.25V33H66.5V28.875H80.25ZM63.75 20.625V23.375H25.25V20.625C25.25 19.8687 25.8687 19.25 26.625 19.25H62.375C63.1312 19.25 63.75 19.8687 63.75 20.625ZM8.75 6.875H44.5C45.2562 6.875 45.875 7.49375 45.875 8.25V11H7.375V8.25C7.375 7.49375 7.99375 6.875 8.75 6.875ZM8.75 59.125C7.99375 59.125 7.375 58.5062 7.375 57.75V13.75H45.875V16.5H26.625C24.3563 16.5 22.5 18.3562 22.5 20.625V22.6875H14.25C13.4937 22.6875 12.875 23.3062 12.875 24.0625C12.875 24.8188 13.4937 25.4375 14.25 25.4375H22.5V30.9375H14.25C13.4937 30.9375 12.875 31.5562 12.875 32.3125C12.875 33.0688 13.4937 33.6875 14.25 33.6875H22.5V39.1875H14.25C13.4937 39.1875 12.875 39.8063 12.875 40.5625C12.875 41.3187 13.4937 41.9375 14.25 41.9375H22.5V47.4375H14.25C13.4937 47.4375 12.875 48.0563 12.875 48.8125C12.875 49.5687 13.4937 50.1875 14.25 50.1875H22.5V59.125H8.75ZM25.25 70.125V26.125H63.75V70.125C63.75 70.8812 63.1312 71.5 62.375 71.5H26.625C25.8687 71.5 25.25 70.8812 25.25 70.125ZM80.25 81.125H44.5C43.7438 81.125 43.125 80.5062 43.125 79.75V74.25H62.375C63.9012 74.25 65.2075 73.4112 65.9225 72.1875H74.75C75.5062 72.1875 76.125 71.5687 76.125 70.8125C76.125 70.0563 75.5062 69.4375 74.75 69.4375H66.5V63.9375H74.75C75.5062 63.9375 76.125 63.3187 76.125 62.5625C76.125 61.8063 75.5062 61.1875 74.75 61.1875H66.5V55.6875H74.75C75.5062 55.6875 76.125 55.0687 76.125 54.3125C76.125 53.5563 75.5062 52.9375 74.75 52.9375H66.5V47.4375H74.75C75.5062 47.4375 76.125 46.8187 76.125 46.0625C76.125 45.3063 75.5062 44.6875 74.75 44.6875H66.5V35.75H81.625V79.75C81.625 80.5062 81.0062 81.125 80.25 81.125ZM34.875 44.99C34.5175 44.99 34.1737 44.8525 33.8988 44.5913C33.3625 44.055 33.3625 43.1888 33.8988 42.6525L35.4387 41.1125L33.8988 39.5725C33.3625 39.0363 33.3625 38.17 33.8988 37.6338C34.435 37.0975 35.3013 37.0975 35.8375 37.6338L37.3775 39.1737L38.9175 37.6338C39.4538 37.0975 40.32 37.0975 40.8563 37.6338C41.3925 38.17 41.3925 39.0363 40.8563 39.5725L39.3162 41.1125L40.8563 42.6525C41.3925 43.1888 41.3925 44.055 40.8563 44.5913C40.5812 44.8663 40.2375 44.99 39.88 44.99C39.5225 44.99 39.1788 44.8525 38.9038 44.5913L37.3638 43.0513L35.8238 44.5913C35.5488 44.8663 35.205 44.99 34.8475 44.99H34.875ZM48.13 42.6388L49.67 41.0987L48.13 39.5588C47.5937 39.0225 47.5937 38.1563 48.13 37.62C48.6662 37.0838 49.5325 37.0838 50.0687 37.62L51.6087 39.16L53.1488 37.62C53.685 37.0838 54.5513 37.0838 55.0875 37.62C55.6238 38.1563 55.6238 39.0225 55.0875 39.5588L53.5475 41.0987L55.0875 42.6388C55.6238 43.175 55.6238 44.0412 55.0875 44.5775C54.8125 44.8525 54.4688 44.9762 54.1113 44.9762C53.7538 44.9762 53.41 44.8387 53.135 44.5775L51.595 43.0375L50.055 44.5775C49.78 44.8525 49.4362 44.9762 49.0788 44.9762C48.7213 44.9762 48.3775 44.8387 48.1025 44.5775C47.5662 44.0412 47.5662 43.175 48.1025 42.6388H48.13ZM44.5 53.1438C41.2825 53.1438 38.34 54.9038 36.8275 57.75C36.47 58.4238 35.6312 58.6712 34.9712 58.3138C34.2975 57.9563 34.05 57.1175 34.4075 56.4575C36.4012 52.7175 40.265 50.3938 44.5137 50.3938C48.7625 50.3938 52.6263 52.7175 54.62 56.4575C54.9775 57.1313 54.73 57.9563 54.0563 58.3138C53.85 58.4238 53.63 58.4787 53.41 58.4787C52.915 58.4787 52.4475 58.2175 52.2 57.75C50.6875 54.9038 47.745 53.1438 44.5275 53.1438H44.5Z" fill="#1A2C3D"/>
</g>
</svg>
