<?xml version="1.0" standalone="no"?>
<!DOCTYPE svg PUBLIC "-//W3C//DTD SVG 20010904//EN"
 "http://www.w3.org/TR/2001/REC-SVG-20010904/DTD/svg10.dtd">
<svg version="1.0" xmlns="http://www.w3.org/2000/svg"
 width="512.000000pt" height="512.000000pt" viewBox="0 0 512.000000 512.000000"
 preserveAspectRatio="xMidYMid meet">

<g transform="translate(0.000000,512.000000) scale(0.100000,-0.100000)"
fill="#000000" stroke="none">
<path d="M2379 4895 c-303 -49 -541 -173 -744 -386 -169 -177 -279 -388 -332
-639 -24 -117 -24 -363 0 -480 61 -290 196 -526 410 -718 l58 -52 -38 -16
c-93 -39 -247 -122 -348 -189 -490 -323 -821 -828 -927 -1415 -25 -140 -38
-577 -19 -641 15 -50 53 -94 105 -122 l41 -22 1975 0 1975 0 45 25 c24 14 58
44 75 68 l30 44 3 211 c4 251 -12 405 -64 607 -131 513 -456 966 -899 1256
-85 55 -262 150 -333 177 l-43 17 60 51 c61 50 162 166 218 249 80 118 156
303 190 463 25 116 25 380 -1 497 -56 260 -167 463 -355 651 -191 191 -393
300 -656 354 -111 23 -319 28 -426 10z m416 -450 c285 -83 504 -303 587 -591
20 -68 23 -101 22 -234 0 -142 -2 -162 -28 -240 -50 -150 -99 -233 -205 -344
-110 -114 -248 -195 -406 -237 -113 -29 -299 -30 -410 0 -323 86 -566 340
-630 660 -23 112 -16 294 15 401 75 261 282 481 537 571 158 56 356 62 518 14z
m64 -2126 c366 -62 739 -271 980 -550 260 -300 396 -636 426 -1046 l5 -83
-1710 0 c-1361 0 -1710 3 -1710 13 0 60 24 259 40 334 139 665 659 1184 1326
1324 204 42 425 45 643 8z"/>
</g>
</svg>
